<svg width="146" height="123" viewBox="0 0 146 123" fill="none" xmlns="http://www.w3.org/2000/svg">
<path d="M3.88964 97.4706V93.4023H20.0536V97.4706H14.4598V112H9.48347V97.4706H3.88964ZM38.7658 93.4023V112H33.7168V93.4023H38.7658ZM52.9216 112V93.4023H65.9981V97.4706H57.9706V100.667H65.199V104.735H57.9706V112H52.9216ZM79.6182 112V93.4023H92.6947V97.4706H84.6672V100.667H91.8956V104.735H84.6672V112H79.6182ZM111.364 93.4023V112H106.315V93.4023H111.364ZM141.611 93.4023V112H137.397L130.678 102.229H130.569V112H125.52V93.4023H129.806L136.417 103.137H136.562V93.4023H141.611Z" fill="#3B2F2F"/>
<path d="M24.3366 116.254C24.3068 115.975 24.1811 115.757 23.9595 115.602C23.74 115.446 23.4545 115.369 23.103 115.369C22.8558 115.369 22.6438 115.406 22.467 115.48C22.2901 115.555 22.1548 115.656 22.0611 115.784C21.9673 115.912 21.9194 116.058 21.9172 116.222C21.9172 116.358 21.9481 116.477 22.0099 116.577C22.0739 116.677 22.1601 116.762 22.2688 116.832C22.3775 116.901 22.4979 116.958 22.63 117.005C22.7621 117.052 22.8952 117.091 23.0295 117.123L23.6431 117.277C23.8903 117.334 24.1278 117.412 24.3558 117.51C24.5859 117.608 24.7915 117.732 24.9726 117.881C25.1559 118.03 25.3008 118.21 25.4073 118.421C25.5138 118.632 25.5671 118.879 25.5671 119.162C25.5671 119.546 25.4691 119.884 25.2731 120.175C25.0771 120.465 24.7937 120.692 24.4229 120.856C24.0543 121.018 23.6079 121.099 23.0838 121.099C22.5746 121.099 22.1324 121.02 21.7574 120.863C21.3846 120.705 21.0927 120.475 20.8817 120.172C20.6729 119.87 20.56 119.501 20.543 119.066H21.7095C21.7266 119.294 21.7969 119.484 21.9204 119.635C22.044 119.787 22.2049 119.9 22.403 119.974C22.6033 120.049 22.8271 120.086 23.0742 120.086C23.332 120.086 23.5579 120.048 23.7518 119.971C23.9478 119.892 24.1012 119.783 24.212 119.645C24.3228 119.504 24.3793 119.34 24.3814 119.153C24.3793 118.982 24.3292 118.842 24.2312 118.731C24.1332 118.618 23.9957 118.524 23.8189 118.45C23.6442 118.373 23.4396 118.305 23.2052 118.245L22.4606 118.053C21.9215 117.915 21.4954 117.705 21.1822 117.424C20.8711 117.14 20.7155 116.764 20.7155 116.295C20.7155 115.91 20.8199 115.572 21.0288 115.282C21.2397 114.993 21.5263 114.768 21.8885 114.608C22.2507 114.446 22.6609 114.365 23.119 114.365C23.5834 114.365 23.9904 114.446 24.3398 114.608C24.6914 114.768 24.9673 114.99 25.1676 115.276C25.3679 115.559 25.4712 115.885 25.4776 116.254H24.3366ZM54.3442 121V114.455H58.6013V115.449H55.5299V117.225H58.3808V118.219H55.5299V120.006H58.6269V121H54.3442ZM88.4067 114.455L90.1102 119.607H90.1773L91.8776 114.455H93.1816L90.874 121H89.4102L87.1059 114.455H88.4067ZM121.84 121H120.574L122.878 114.455H124.342L126.65 121H125.384L123.636 115.797H123.585L121.84 121ZM121.881 118.434H125.333V119.386H121.881V118.434Z" fill="#3B2F2F"/>
<path d="M80.8644 25.549C79.6355 25.4807 76.8502 24.9755 75.5395 23.501C74.2288 22.0264 74.7203 19.0636 75.1299 17.7665C75.5395 16.5377 77.4033 14.1415 81.5813 14.3873C86.8037 14.6945 89.0566 18.3809 88.8518 20.4289C87.0427 20.2241 83.3426 19.876 83.0149 20.1217C82.6053 20.4289 82.6053 20.3265 82.7077 22.1697C82.8101 24.013 82.7075 25.7538 80.8644 25.549Z" fill="#FF750F"/>
<path d="M77.7612 25.8382C78.5804 26.3502 80.7718 27.067 82.9837 25.8382C83.7005 25.531 84.8064 24.1178 83.4957 20.9229C84.1442 20.7864 85.6666 20.6771 86.5677 21.3325C86.7043 22.2881 87.1002 24.3018 87.5917 24.7114C88.0833 25.121 87.7283 25.4282 87.4893 25.5306C87.0797 25.6671 86.1991 26.3088 85.9533 27.7834C85.7076 29.258 84.349 28.6026 83.7005 28.0906C83.3592 27.7834 82.5126 27.3533 81.8573 28.0906C81.2019 28.8279 80.9698 29.2853 80.9357 29.4218L77.7612 25.8382Z" fill="#FFF6E5"/>
<path d="M61.1633 29.7785L44.3302 24.1325C43.1681 23.7427 41.9101 24.3688 41.5203 25.5309L35.8743 42.364C35.4845 43.5261 36.1106 44.7841 37.2727 45.1739L54.1058 50.8199C55.2679 51.2097 56.5259 50.5836 56.9157 49.4215L62.5617 32.5884C62.9515 31.4263 62.3254 30.1683 61.1633 29.7785Z" fill="#F2B705"/>
<path d="M62.4985 32.7472L41.3723 25.6621L40.4867 28.3029L61.6128 35.388L62.4985 32.7472Z" fill="#FF750F"/>
<path fill-rule="evenodd" clip-rule="evenodd" d="M72.5781 0C112.662 0.000144315 145.156 32.4946 145.156 72.5781C145.156 78.5115 145.021 83.4186 143.609 89.1084C143.59 89.1874 143.565 89.3437 143.534 89.5316C143.458 90.0071 143.348 90.6849 143.215 90.8232H140.943C126.697 90.912 24.5649 90.9816 5.23633 90.8301H2.45117C2.45117 90.8301 2.24003 90.2952 1.98047 89.4805C0.686311 84.0555 0 78.3959 0 72.5781C0 32.4946 32.4946 0.000144334 72.5781 0ZM72.5781 3.15625C34.2374 3.15639 3.15625 34.2374 3.15625 72.5781C3.15625 78.3313 3.85501 83.9191 5.17285 89.2617C5.87458 89.2351 6.69268 89.2065 7.60156 89.1768C6.34159 84.0491 5.67188 78.6892 5.67188 73.1729C5.67204 36.2525 35.6022 6.32262 72.5225 6.32227C109.443 6.32227 139.374 36.2523 139.374 73.1729C139.374 78.665 138.71 84.0021 137.461 89.1094C138.376 89.136 139.257 89.1732 140.078 89.2285L140.547 88.3486C141.86 83.054 142 78.4717 142 72.5781C142 34.2374 110.919 3.15639 72.5781 3.15625ZM72.5225 7.91406C36.4812 7.91442 7.26384 37.1316 7.26367 73.1729C7.26367 78.6763 7.94569 84.0205 9.22852 89.126C15.3581 88.9374 24.3521 88.7157 30.5029 88.6074L50.3174 88.4062C54.1713 88.7312 55.9505 88.5417 56.3584 88.4062V88.8154L106.13 88.5V88.0908C108.312 88.8158 111.286 88.6657 112.5 88.5L127.906 89.0889C128.325 89.0858 128.753 89.0822 129.189 89.0785L129.2 89.0784H129.202C131.329 89.0605 133.637 89.0411 135.831 89.0732C137.105 83.9837 137.782 78.6573 137.782 73.1729C137.782 37.1314 108.564 7.91406 72.5225 7.91406ZM63.1172 81.2383H58.8164V80.7256H57.1777C56.5291 81.2717 54.9662 82.3435 53.9014 82.2617H51.4434C50.7604 82.0568 49.252 81.442 48.6787 80.623C48.1056 79.8038 48.1672 78.3018 48.2695 77.6533C48.3379 77.2095 48.6588 76.2615 49.3955 76.0156H57.9971C58.8504 75.9132 60.0451 75.5853 57.9971 75.0938C55.9493 74.6023 55.1639 74.6163 55.0273 74.6846H38.8486C38.8145 73.8313 39.1764 71.7352 40.8965 70.1787C41.272 69.9056 41.4903 69.2573 39.3604 68.8477C39.3403 68.8438 39.3205 68.8398 39.3009 68.8358C39.2864 68.8329 39.272 68.8299 39.2578 68.8271C39.2359 68.8228 39.2137 68.8187 39.1922 68.8146C39.1796 68.8122 39.1673 68.8099 39.1553 68.8076C39.1614 67.2219 39.5369 63.9462 40.999 63.2148C41.8183 62.9418 43.8048 62.4988 45.1973 62.9082C45.8799 61.2357 48.6379 57.7681 54.208 57.2764H76.5312C75.234 58.3347 72.4354 60.9011 71.6162 62.7031C70.5922 64.956 68.6471 70.3836 74.6885 73.8652H87.1807C88.6825 73.797 92.2805 72.5132 94.6562 67.9258C97.6259 62.1913 95.3727 53.8965 91.4814 45.9092C90.4572 46.1138 88.2461 45.868 87.5908 43.2471C84.6894 43.3836 78.3133 43.5128 76.0195 42.9395C73.7259 42.3656 72.4693 36.1472 72.1279 33.1094C72.0596 32.8704 71.8619 32.536 71.6162 33.1094C71.3705 33.683 71.4454 36.4208 71.5137 37.7178C71.582 38.7078 72.0668 41.1375 73.459 42.9395C73.5614 43.1443 73.7048 43.6362 73.459 43.9639C73.2134 44.2915 72.9472 44.8508 72.8447 45.0898C72.8106 45.2946 72.8862 45.7245 73.459 45.8066C74.1757 45.909 83.698 48.06 85.6445 49.1865C87.5901 50.3129 87.2838 52.054 86.9766 52.9756C86.7296 53.716 82.6405 64.2744 80.627 69.4619C82.0605 69.9739 85.0916 71.3054 85.7471 72.5342H75.6094L78.4766 60.4502C78.8179 58.3682 79.7673 53.9593 80.832 52.9756C79.9444 52.7708 77.9853 52.4841 77.248 52.9756V55.6377L54.0039 55.5352C53.1847 54.9548 51.9557 53.3843 53.5938 51.7461C53.6414 51.7586 53.6944 51.7728 53.7516 51.7881L53.7537 51.7886L53.8066 51.8027C54.541 51.9986 55.8977 52.3602 56.5635 52.3604C57.3006 52.3604 57.7579 51.2005 57.8945 50.6201C58.0311 50.2447 58.7143 49.7191 60.3525 50.6201C60.886 50.9135 61.3298 51.2204 61.7695 51.5254L61.7711 51.5265C63.0187 52.3918 64.2392 53.2382 67.418 53.6924H76.2236V53.1797C72.6053 53.282 64.8176 52.7906 62.6055 50.0059C61.9228 49.6302 60.762 47.9978 61.5811 44.4756C62.6051 40.0724 65.5744 33.5188 70.5918 29.4229C74.6044 26.1472 76.4958 26.4191 76.9404 26.9648C78.0326 27.8864 80.2784 30.078 80.5244 31.4707C80.7702 32.8634 79.5353 36.0791 78.8867 37.5127C78.9209 36.2839 78.6407 33.3549 77.248 31.4707C77.5211 32.8019 78.0467 36.2631 77.9648 39.458C81.0027 39.7311 88.1847 40.5641 92.6084 41.7109C93.3935 40.7211 95.7213 38.7621 98.752 38.8438C99.4005 39.5605 100.35 42.1205 98.957 46.626L95.5781 45.9092C95.2368 45.8069 94.7592 45.8896 95.5781 47.0361C96.6023 48.4701 99.6734 53.6913 100.288 55.3301C100.779 56.6404 102.336 57.3096 103.053 57.4805C103.838 57.7535 105.429 59.0784 105.511 62.1914C103.736 62.9083 99.7768 65.0176 98.5479 67.7207C98.1382 68.4375 97.1956 70.1372 96.7041 71.2021C96.6104 71.4052 96.5217 71.6487 96.4219 71.9226L96.4189 71.9307C95.8642 73.4531 94.9703 75.9059 91.0723 77.5518C87.8659 78.9054 83.1874 78.8336 80.4736 78.792C80.0675 78.7858 79.705 78.7803 79.3984 78.7803H69.4658C69.3292 79.6336 67.8683 81.3202 63.1172 81.2383ZM107.047 75.4004C109.504 73.6598 111.553 75.0937 112.372 75.8105C113.191 76.5276 114.727 79.3947 111.962 81.5449C109.75 83.2647 107.56 82.1933 106.74 81.4424C105.307 80.5206 104.589 77.1412 107.047 75.4004ZM109.095 62.9082C114.624 62.4986 118.209 65.5704 119.745 69.9736C117.424 69.6665 111.9 69.585 108.378 71.7148C107.49 72.1928 105.49 73.4755 104.589 74.7861C103.688 76.0968 99.2307 77.3121 97.1143 77.7559C96.8754 75.6395 97.2165 70.6079 100.493 67.4131C101.517 66.0477 104.672 63.236 109.095 62.9082ZM68.0322 65.4678C68.2369 61.0646 64.3457 59.2215 58.6113 60.4502C52.8773 61.6788 50.4199 62.3961 48.2695 63.5225C47.7917 63.8297 47.1231 64.3823 48.2695 64.1367C51.6146 63.1469 59.0007 61.393 61.7861 62.2939C65.2676 63.4203 68.6469 64.9568 64.0391 73.8652C63.6978 74.5137 63.3223 75.5235 64.5508 74.377C66.0868 72.9433 67.8274 69.871 68.0322 65.4678ZM116.57 67.209C115.751 65.7753 111.04 62.7033 106.125 64.9561C105.545 65.2633 104.733 65.8159 106.125 65.5703C107.763 64.956 112.045 64.526 116.059 67.7207C116.502 68.0278 117.225 68.3554 116.57 67.209ZM50.4199 50.7217C51.1572 50.9674 51.3418 51.1661 51.3418 51.2344C51.3759 51.6782 51.3205 52.4839 50.8291 52.1562C50.3379 51.8288 49.6015 51.542 49.2939 51.4395C48.639 51.2758 48.7473 51.7122 48.8838 51.9512C49.3275 52.5997 50.3179 54.142 50.7275 55.125C51.1371 56.1081 50.5562 56.4903 50.2148 56.5586L47.041 51.4395L37.5176 47.8545C37.8248 48.3665 38.2342 49.0833 37.415 47.8545C36.5964 46.6263 37.279 46.3869 37.7227 46.4209C41.6475 47.7519 49.6806 50.4752 50.4199 50.7217ZM99.9814 39.0488C99.6908 38.1479 100.338 38.6734 100.698 39.0488C102.336 40.7898 101.517 46.1129 100.698 46.626C100.043 47.0353 100.016 46.5925 100.084 46.3193C100.985 42.3878 100.391 39.8343 99.9814 39.0488Z" fill="#FF750F"/>
<path d="M43.5596 86.8701C43.4776 86.2148 42.8424 85.7088 42.5352 85.5381L25.6387 85.7432L43.5596 86.8701Z" fill="#FFF6E5"/>
<path d="M40.5898 82.2031C40.5079 81.5478 40.2819 80.9988 39.9746 80.8281L25.6387 81.5449L40.5898 82.2031Z" fill="#FFF6E5"/>
<path d="M39.873 78.6777C39.7911 78.0224 39.361 77.1072 39.0537 76.9365L22.9766 77.5508L39.873 78.6777Z" fill="#FFF6E5"/>
<path d="M37.415 73.0459C37.8246 72.8821 37.9952 72.1578 38.0293 71.8164C35.7081 71.8164 30.9633 71.837 30.5537 71.9189C30.1456 72.0007 30.3832 72.0898 30.5537 72.124C32.0627 72.0446 35.5552 72.7293 37.2598 73.1133C37.2953 73.0957 37.3465 73.0733 37.415 73.0459Z" fill="#FFF6E5"/>
<path d="M37.5176 66.2871C35.204 65.8849 29.6305 66.6683 29.5303 66.6963C29.6163 66.6967 34.718 67.1742 37.2598 67.4131C37.8731 67.0854 37.6874 66.5261 37.5176 66.2871Z" fill="#FFF6E5"/>
<path d="M44.4805 61.4746C44.8901 61.2288 44.8564 60.6891 44.7881 60.4502C41.9209 60.3683 37.7222 60.7571 35.9814 60.9619L44.4805 61.4746Z" fill="#FFF6E5"/>
<path d="M34.4453 41.7109C34.7728 41.1377 34.5818 40.6532 34.4453 40.4824C32.6429 40.4825 28.7105 40.8235 26.9697 40.9941L34.4453 41.7109Z" fill="#FFF6E5"/>
<path d="M21.3379 35.874L35.5713 36.8984V35.3623L21.3379 35.874Z" fill="#FFF6E5"/>
<path d="M37.21 31.6758C37.3465 31.3686 37.5376 30.6312 37.21 30.1396L25.0244 30.4473C26.7995 30.8569 31.7216 31.6757 37.21 31.6758Z" fill="#FFF6E5"/>
<path d="M29.4277 25.4297C31.3393 25.7369 35.8996 26.3712 38.8486 26.4531V25.1221L29.4277 25.4297Z" fill="#FFF6E5"/>
<path d="M98 79.0267C99.2288 85.3344 104.042 87.868 106.295 88.346C108.877 89.0713 111.415 88.9395 112.959 88.7552C116.067 87.9395 117.15 86.6389 118.071 85.7855C121.102 83.0003 121.109 78.5496 120.733 76.6722C120.426 75.0338 119.259 71.6334 117.047 71.1419C114.835 70.6507 111.824 71.5518 110.596 72.0638C113.872 72.7806 115.102 74.931 115.818 76.3646C116.392 77.5114 116.057 79.7095 115.818 80.6654C115.409 82.4062 113.565 84.0451 111.415 84.6595C109.695 85.1509 108.104 84.8643 107.523 84.6595C103.428 83.4306 102.472 79.369 102.506 77.4915L98 79.0267Z" fill="#3B2F2F"/>
<path d="M50.4048 88.8144C48.4821 88.3201 44.3782 86.2935 43.3438 82.1426C43.1449 81.4718 42.7672 79.3039 42.8468 76H46.9241C46.7969 77.0579 46.7252 79.3886 46.9241 80.3418C47.1653 81.4976 49.3108 85.0015 52.8907 85.0018C55.7545 85.0018 58.1064 82.2004 58.8359 81H63C62.7015 83.083 61 87 56.2718 88.8144C55.0664 88.9545 52.2053 89.1505 50.4048 88.8144Z" fill="#3B2F2F"/>
</svg>
